<?xml version="1.0" encoding="UTF-8"?><svg id="b" xmlns="http://www.w3.org/2000/svg" viewBox="0 0 748.775 111.626"><g id="c"><polygon points="176.865 24.186 133.952 24.186 133.952 30.263 151.874 30.263 151.874 74.418 158.944 74.418 158.944 30.263 176.865 30.263 176.865 24.186" fill="#1d1d1b"/><path d="M202.868,37.209l-12.154,29.085h-.311l-12.775-29.085h-7.193l16.681,37.333-3.844,9.24h-8.993v5.52h9.116c2.025,0,3.442-.549,4.248-1.643.805-1.096,1.622-2.595,2.449-4.496l3.721-8.744,15.876-37.209h-6.823Z" fill="#1d1d1b"/><path d="M230.649,53.27l-8.123-1.55c-1.984-.372-3.421-.919-4.31-1.643-.89-.723-1.334-1.726-1.334-3.008,0-1.653.692-2.915,2.078-3.783,1.384-.868,3.337-1.302,5.86-1.302,2.728,0,4.846.496,6.356,1.488,1.509.992,2.469,2.522,2.884,4.589h6.76c-.372-3.679-1.933-6.532-4.683-8.558-2.75-2.025-6.459-3.038-11.131-3.038-4.507,0-8.062.992-10.667,2.977s-3.907,4.693-3.907,8.124c0,5.292,3.452,8.579,10.356,9.86l8.125,1.488c2.108.372,3.606.961,4.496,1.767.888.806,1.333,1.953,1.333,3.442,0,3.638-2.894,5.457-8.682,5.457-3.308,0-5.81-.537-7.504-1.613-1.695-1.074-2.687-2.749-2.977-5.023h-6.884c.289,3.845,1.923,6.843,4.9,8.993,2.977,2.15,7.048,3.225,12.216,3.225,4.962,0,8.764-1.012,11.411-3.038,2.645-2.025,3.969-4.857,3.969-8.496,0-2.852-.849-5.126-2.544-6.822-1.695-1.695-4.362-2.873-8-3.535Z" fill="#1d1d1b"/><path d="M254.71,42.542h9.674v-5.334h-9.735v-11.163h-6.823v11.163h-7.007v5.334h6.946v25.798c0,2.026.547,3.546,1.642,4.558,1.096,1.014,2.637,1.52,4.621,1.52h11.349v-5.457h-10.667v-26.418Z" fill="#1d1d1b"/><path d="M298.928,50.666c0-4.589-1.375-8.102-4.125-10.542-2.75-2.439-6.708-3.659-11.875-3.659-4.549,0-8.279,1.014-11.195,3.038-2.914,2.026-4.682,4.879-5.302,8.558h7.009c1.074-3.885,4.195-5.829,9.363-5.829,6.326,0,9.488,2.874,9.488,8.62v1.674h-12.712c-4.507,0-7.959.983-10.357,2.946-2.398,1.964-3.596,4.724-3.596,8.279,0,3.39,1.209,6.129,3.628,8.216,2.419,2.089,5.735,3.132,9.953,3.132,2.935,0,5.519-.569,7.751-1.706,2.233-1.137,3.99-2.698,5.272-4.682h2.605v5.706h7.442v-7.194h-3.349v-16.558ZM292.291,59.286c0,1.86-.538,3.576-1.612,5.147-1.076,1.572-2.542,2.812-4.403,3.721-1.86.91-3.907,1.365-6.139,1.365-2.481,0-4.424-.548-5.83-1.644-1.406-1.094-2.109-2.573-2.109-4.434,0-3.886,2.605-5.829,7.814-5.829h12.279v1.674Z" fill="#1d1d1b"/><path d="M346.677,46.573l-10.046-1.984c-5.581-1.116-8.372-3.638-8.372-7.566,0-2.439.962-4.32,2.884-5.643,1.923-1.323,4.578-1.985,7.969-1.985,7.4,0,11.721,3.06,12.961,9.178h7.504c-.538-4.754-2.594-8.465-6.17-11.131-3.577-2.666-8.198-4-13.86-4-5.623,0-10.068,1.271-13.334,3.814-3.266,2.543-4.898,5.985-4.898,10.325,0,3.39,1.137,6.212,3.41,8.465,2.273,2.254,5.581,3.814,9.923,4.682l9.612,1.922c2.894.538,5.076,1.488,6.544,2.852,1.467,1.365,2.201,3.122,2.201,5.272,0,2.77-1.054,4.858-3.163,6.263-2.108,1.406-5.147,2.109-9.116,2.109-4.465,0-7.937-.858-10.418-2.574-2.48-1.715-3.804-4.164-3.968-7.349h-7.504c.372,5.003,2.469,8.91,6.295,11.721,3.823,2.812,8.961,4.217,15.41,4.217,6.078,0,10.831-1.312,14.264-3.938,3.43-2.625,5.147-6.294,5.147-11.007,0-3.638-1.116-6.605-3.349-8.9-2.233-2.294-5.541-3.876-9.923-4.744Z" fill="#1d1d1b"/><polygon points="398.521 37.209 390.025 37.209 372.103 53.953 371.855 53.953 371.855 22.325 364.909 22.325 364.909 74.418 371.855 74.418 371.855 60.836 376.754 56.868 391.514 74.418 399.948 74.418 381.467 52.589 398.521 37.209" fill="#1d1d1b"/><path d="M429.435,38.821c-2.831-1.571-6.232-2.357-10.2-2.357-3.846,0-7.205.797-10.078,2.387-2.874,1.592-5.096,3.836-6.666,6.729-1.573,2.895-2.358,6.305-2.358,10.232s.785,7.339,2.358,10.232c1.57,2.895,3.792,5.137,6.666,6.729s6.232,2.387,10.078,2.387c3.927,0,7.317-.785,10.17-2.357,2.853-1.57,5.054-3.814,6.605-6.728,1.551-2.915,2.326-6.336,2.326-10.264,0-3.969-.775-7.4-2.326-10.294s-3.743-5.126-6.574-6.698ZM428.195,65.581c-2.129,2.336-5.116,3.504-8.961,3.504-3.805,0-6.782-1.167-8.93-3.504-2.151-2.335-3.225-5.591-3.225-9.767s1.074-7.431,3.225-9.767c2.148-2.335,5.125-3.504,8.93-3.504,3.844,0,6.831,1.158,8.961,3.472,2.129,2.316,3.193,5.581,3.193,9.799,0,4.177-1.064,7.432-3.193,9.767Z" fill="#1d1d1b"/><path d="M452.535,42.542h9.674v-5.334h-9.735v-11.163h-6.823v11.163h-7.007v5.334h6.946v25.798c0,2.026.547,3.546,1.642,4.558,1.096,1.014,2.637,1.52,4.621,1.52h11.349v-5.457h-10.667v-26.418Z" fill="#1d1d1b"/><path d="M491.945,38.635c-2.626-1.447-5.737-2.171-9.333-2.171-3.763,0-7.049.786-9.86,2.357-2.812,1.571-4.993,3.794-6.544,6.666-1.549,2.874-2.326,6.274-2.326,10.201s.776,7.36,2.326,10.295c1.551,2.936,3.753,5.199,6.605,6.791,2.853,1.592,6.222,2.387,10.109,2.387,4.423,0,8.134-1.054,11.132-3.163,2.997-2.108,4.951-5.085,5.86-8.93h-7.07c-.663,2.068-1.86,3.628-3.597,4.682-1.737,1.054-3.866,1.581-6.388,1.581-3.638,0-6.542-1.086-8.712-3.256-2.171-2.171-3.36-5.199-3.567-9.086h29.644v-2.791c0-3.637-.724-6.78-2.17-9.426-1.448-2.645-3.484-4.692-6.109-6.139ZM470.829,51.906c.578-3.059,1.901-5.436,3.969-7.131,2.067-1.695,4.651-2.543,7.751-2.543,3.141,0,5.674.848,7.597,2.543,1.921,1.695,3.048,4.073,3.379,7.131h-22.697Z" fill="#1d1d1b"/><path d="M517.992,38.821c-2.171,1.282-3.773,3.06-4.807,5.333h-2.605v-6.945h-7.442v7.194h3.597v30.015h6.884v-19.41c0-3.721,1.012-6.677,3.038-8.868,2.026-2.191,4.9-3.287,8.621-3.287h3.411v-5.953h-3.039c-2.936,0-5.488.642-7.658,1.923Z" fill="#1d1d1b"/><path d="M571.539,46.573l-10.046-1.984c-5.581-1.116-8.372-3.638-8.372-7.566,0-2.439.962-4.32,2.884-5.643,1.923-1.323,4.578-1.985,7.969-1.985,7.4,0,11.721,3.06,12.961,9.178h7.504c-.538-4.754-2.594-8.465-6.17-11.131-3.577-2.666-8.198-4-13.86-4-5.623,0-10.068,1.271-13.334,3.814-3.266,2.543-4.898,5.985-4.898,10.325,0,3.39,1.137,6.212,3.41,8.465,2.273,2.254,5.581,3.814,9.923,4.682l9.612,1.922c2.894.538,5.076,1.488,6.544,2.852,1.467,1.365,2.201,3.122,2.201,5.272,0,2.77-1.054,4.858-3.163,6.263-2.108,1.406-5.147,2.109-9.116,2.109-4.465,0-7.937-.858-10.418-2.574-2.48-1.715-3.804-4.164-3.968-7.349h-7.504c.372,5.003,2.469,8.91,6.295,11.721,3.823,2.812,8.961,4.217,15.41,4.217,6.078,0,10.831-1.312,14.264-3.938,3.43-2.625,5.147-6.294,5.147-11.007,0-3.638-1.116-6.605-3.349-8.9-2.233-2.294-5.541-3.876-9.923-4.744Z" fill="#1d1d1b"/><path d="M648.066,37.209h-6.946v21.581c0,3.225-.961,5.736-2.884,7.535-1.923,1.799-4.641,2.698-8.155,2.698-3.308,0-5.828-.858-7.565-2.573-1.737-1.715-2.605-4.248-2.605-7.597v-21.643h-20.216v-11.163h-6.823v11.163h-7.007v5.334h6.946v25.798c0,2.026.547,3.546,1.642,4.558,1.096,1.014,2.637,1.52,4.621,1.52h11.349v-5.457h-10.667v-26.418h13.209v17.798c0,4.507,1.365,8.093,4.093,10.76,2.73,2.666,6.491,4,11.288,4,3.058,0,5.705-.549,7.937-1.644,2.233-1.094,4.01-2.676,5.333-4.744h2.605v5.706h7.442v-7.194h-3.596v-30.015Z" fill="#1d1d1b"/><path d="M690.731,22.325h-6.945v20.899h-.249c-1.116-2.19-2.76-3.865-4.93-5.023-2.17-1.157-4.744-1.736-7.721-1.736-3.514,0-6.542.786-9.086,2.357-2.542,1.571-4.496,3.804-5.86,6.698-1.363,2.894-2.046,6.326-2.046,10.294s.692,7.401,2.078,10.294c1.384,2.895,3.389,5.127,6.014,6.698,2.625,1.572,5.799,2.357,9.52,2.357,2.977,0,5.539-.549,7.689-1.643,2.15-1.095,3.846-2.698,5.086-4.807h2.605v5.706h7.442v-7.194h-3.597V22.325ZM683.786,58.542c0,3.225-1.023,5.809-3.07,7.751-2.046,1.944-4.766,2.915-8.155,2.915-3.721,0-6.605-1.178-8.651-3.535-2.046-2.357-3.07-5.643-3.07-9.86s1.023-7.504,3.07-9.86c2.046-2.357,4.93-3.535,8.651-3.535,3.389,0,6.109.972,8.155,2.915,2.046,1.943,3.07,4.527,3.07,7.751v5.458Z" fill="#1d1d1b"/><rect x="699.04" y="37.209" width="6.946" height="37.209" fill="#1d1d1b"/><path d="M702.513,23.689c-1.157,0-2.15.414-2.977,1.241-.827.828-1.24,1.82-1.24,2.977s.413,2.15,1.24,2.977c.827.828,1.82,1.241,2.977,1.241s2.15-.413,2.977-1.241c.827-.826,1.241-1.819,1.241-2.977s-.414-2.149-1.241-2.977c-.827-.826-1.82-1.241-2.977-1.241Z" fill="#1d1d1b"/><path d="M746.449,45.519c-1.551-2.894-3.743-5.126-6.574-6.698s-6.232-2.357-10.2-2.357c-3.846,0-7.205.797-10.078,2.387-2.874,1.592-5.096,3.836-6.666,6.729-1.573,2.895-2.358,6.305-2.358,10.232s.785,7.339,2.358,10.232c1.57,2.895,3.792,5.137,6.666,6.729s6.232,2.387,10.078,2.387c3.927,0,7.317-.785,10.17-2.357,2.853-1.57,5.054-3.814,6.605-6.728,1.551-2.915,2.326-6.336,2.326-10.264,0-3.969-.775-7.4-2.326-10.294ZM738.636,65.581c-2.129,2.336-5.116,3.504-8.961,3.504-3.805,0-6.782-1.167-8.93-3.504-2.151-2.335-3.225-5.591-3.225-9.767s1.074-7.431,3.225-9.767c2.148-2.335,5.125-3.504,8.93-3.504,3.844,0,6.831,1.158,8.961,3.472,2.129,2.316,3.193,5.581,3.193,9.799,0,4.177-1.064,7.432-3.193,9.767Z" fill="#1d1d1b"/><path d="M55.138.006C29.748-.375,5.118,18.448.427,44.331c-3.519,25.882,15.247,48.235,36.358,61.177,12.901,7.059,26.975,8.235,41.049,2.353,24.63-9.412,37.531-37.647,32.839-63.529C105.347,18.103,81.348-.101,55.138.006ZM71.182,64.265c-4.528.211-8.628-2.57-12.137-5.138-8.128-5.467-14.729-14.834-8.185-24.208,4.691-7.059,16.419-3.529,23.456,2.353,3.82,3.193,6.729,8.855,6.885,13.827.195,6.216-3.655,12.82-10.02,13.165Z" fill="#1d1d1b"/></g></svg>